# xmcd CD database file
#
# Track frame offsets:
#	150
#	22387
#	46260
#	65512
#	85350
#	107890
#	127590
#	149217
#	162610
#	189672
#	211685
#	236377
#	259437
#	280287
#	303870
#
# Disc length: 4196 seconds
#
# Revision: 41
# Processed by: cddbd v1.5.2PL0 Copyright (c) Steve Scherf et al.
# Submitted via: CDex 1.70beta3
#
DISCID=e210620f
DTITLE=竹内まりや - Bon Appetit!
DYEAR=2001
DGENRE=JPop
TTITLE0=毎日がスペシャル
TTITLE1=真夜中のナイチンゲール
TTITLE2=ロンリー・ウーマン (2001 Remix Version)
TTITLE3=心はいつでも17才(seventeen)
TTITLE4=とまどい
TTITLE5=ソウルメイトを探して
TTITLE6=ノスタルジア
TTITLE7=Dream Seeker
TTITLE8=Tell me, tell me (2001 Remix Version)
TTITLE9=今夜はHearty Party (2001 Remix Version)
TTITLE10=カムフラージュ
TTITLE11=Winter Lovers
TTITLE12=すてきなホリデイ
TTITLE13=天使のため息
TTITLE14=A cup of tea
EXTD=2001/08/22 \\ YEAR: 2001
EXTT0=
EXTT1=
EXTT2=
EXTT3=
EXTT4=
EXTT5=
EXTT6=
EXTT7=
EXTT8=
EXTT9=
EXTT10=
EXTT11=
EXTT12=
EXTT13=
EXTT14=
PLAYORDER=
